<?xml version="1.0" encoding="UTF-8" standalone="no"?>
<!-- Created with Inkscape (http://www.inkscape.org/) -->

<svg
   width="85.016006mm"
   height="34.027161mm"
   viewBox="0 0 85.016007 34.02716"
   version="1.1"
   id="svg1"
   xml:space="preserve"
   inkscape:version="1.3.2 (091e20e, 2023-11-25, custom)"
   sodipodi:docname="logo-template.svg"
   inkscape:export-filename="logo-exported.svg"
   inkscape:export-xdpi="96"
   inkscape:export-ydpi="96"
   xmlns:inkscape="http://www.inkscape.org/namespaces/inkscape"
   xmlns:sodipodi="http://sodipodi.sourceforge.net/DTD/sodipodi-0.dtd"
   xmlns:xlink="http://www.w3.org/1999/xlink"
   xmlns="http://www.w3.org/2000/svg"
   xmlns:svg="http://www.w3.org/2000/svg"><sodipodi:namedview
     id="namedview1"
     pagecolor="#ffffff"
     bordercolor="#000000"
     borderopacity="0.25"
     inkscape:showpageshadow="2"
     inkscape:pageopacity="0.0"
     inkscape:pagecheckerboard="0"
     inkscape:deskcolor="#d1d1d1"
     inkscape:document-units="mm"
     showgrid="true"
     inkscape:zoom="2.8364759"
     inkscape:cx="129.03335"
     inkscape:cy="50.767221"
     inkscape:window-width="1920"
     inkscape:window-height="992"
     inkscape:window-x="-8"
     inkscape:window-y="-8"
     inkscape:window-maximized="1"
     inkscape:current-layer="g7"><inkscape:grid
       id="grid2"
       units="mm"
       originx="0.0079999852"
       originy="-9.9768407"
       spacingx="0.99999999"
       spacingy="1"
       empcolor="#0099e5"
       empopacity="0.30196078"
       color="#0099e5"
       opacity="0.14902"
       empspacing="5"
       dotted="false"
       gridanglex="30"
       gridanglez="30"
       visible="true" /></sodipodi:namedview><defs
     id="defs1"><linearGradient
       id="linearGradient1"
       inkscape:collect="always"><stop
         style="stop-color:#ffffff;stop-opacity:0.94901961;"
         offset="0.6175772"
         id="stop1" /><stop
         style="stop-color:#586e75;stop-opacity:0;"
         offset="1"
         id="stop2" /></linearGradient><radialGradient
       inkscape:collect="always"
       xlink:href="#linearGradient1"
       id="radialGradient2"
       cx="43.263832"
       cy="28.072411"
       fx="43.263832"
       fy="28.072411"
       r="34.104359"
       gradientTransform="matrix(1,0,0,0.53196982,-0.26383256,12.066324)"
       gradientUnits="userSpaceOnUse" /><style
       class="style-fonts"
       id="style1">
      @font-face {
        font-family: &quot;Virgil&quot;;
        src: url(&quot;https://file%2B.vscode-resource.vscode-cdn.net/c%3A/Users/realz/.vscode/extensions/pomdtr.excalidraw-editor-3.7.4/public//dist/excalidraw-assets/Virgil.woff2&quot;);
      }
      @font-face {
        font-family: &quot;Cascadia&quot;;
        src: url(&quot;https://file%2B.vscode-resource.vscode-cdn.net/c%3A/Users/realz/.vscode/extensions/pomdtr.excalidraw-editor-3.7.4/public//dist/excalidraw-assets/Cascadia.woff2&quot;);
      }
      @font-face {
        font-family: &quot;Assistant&quot;;
        src: url(&quot;https://file%2B.vscode-resource.vscode-cdn.net/c%3A/Users/realz/.vscode/extensions/pomdtr.excalidraw-editor-3.7.4/public//dist/excalidraw-assets/Assistant-Regular.woff2&quot;);
      }
    </style></defs><g
     inkscape:groupmode="layer"
     id="layer3"
     inkscape:label="Layer 3"
     style="display:inline"
     transform="translate(0.00399999,-9.9808414)"><rect
       style="display:none;opacity:1;fill:#000000;fill-opacity:1;stroke:#000000;stroke-width:0.00799999;paint-order:stroke fill markers"
       id="rect7"
       width="85.008003"
       height="34.019161"
       x="4.9322839e-09"
       y="9.9848413"
       ry="1" /></g><g
     inkscape:label="Layer 1"
     inkscape:groupmode="layer"
     id="layer1"
     transform="translate(0.00799999,-9.9768414)"
     style="display:inline"
     sodipodi:insensitive="true"><rect
       style="display:inline;opacity:1;fill:url(#radialGradient2);stroke:#000000;stroke-width:0.00799999;paint-order:stroke fill markers"
       id="rect1"
       width="85"
       height="54"
       x="0"
       y="0"
       ry="8.5537691"
       sodipodi:insensitive="true" /></g><g
     inkscape:groupmode="layer"
     id="layer2"
     inkscape:label="Layer 2"
     transform="translate(0.00799999,-9.9768414)"
     style="display:inline"><g
       id="g7"
       transform="matrix(0.2008089,0,0,0.20783404,27.68563,16.024286)"
       inkscape:label="g7"><g
         transform="translate(34.547613,33.532264)"
         id="g1"><path
           d="m 7.09375,15.201134 q -0.8984375,0.02344 -1.7421875,-0.320313 -0.84375,-0.335937 -1.484375,-0.976562 -0.625,-0.640625 -0.9609375,-1.476563 -0.3359375,-0.828125 -0.3359375,-1.726562 0,-0.484375 0.1796875,-1.2890628 0.1875,-0.8125 0.4765625,-1.78125 0.2890625,-0.96875 0.625,-1.953125 Q 4.1875,4.6855087 4.5,3.8261337 4.8125,2.9589462 5.0390625,2.3573837 5.265625,1.7480087 5.3359375,1.5683212 l 0.023437,-0.046875 q 0.2265625,-0.57031247 0.5234375,-1.12499997 0.296875,-0.5546875 0.8046875,-0.90625 0.5078125,-0.359375 1.3828125,-0.3359375 0.484375,0 1.09375,0.1953125 0.6171875,0.1875 1.1875005,0.578125 0.570312,0.3828125 0.9375,0.96875 0.375,0.57812497 0.375,1.35156247 0.01563,0.4375 -0.164063,0.8359375 -0.179687,0.3984375 -0.515625,0.6796875 -0.09375,0.5390625 -0.5,0.90625 -0.40625,0.359375 -0.953125,0.3984375 H 8.3359375 q 0.2734375,0.546875 0.5859375,1.171875 0.3125,0.625 0.5546875,1.09375 0.7031255,-1.2421875 1.9140625,-1.9921875 1.210938,-0.75 2.640625,-0.828125 1.046875,0.023437 2.015625,0.4296875 0.96875,0.3984375 1.726562,1.1171875 0.75,0.640625 1.179688,1.53125 0.429687,0.8828125 0.476562,1.8671875 0,1.0390628 -0.351562,2.0546878 Q 18.726562,12.529259 18,13.365196 q -0.726563,0.835938 -1.84375,1.335938 -1.109375,0.5 -2.632812,0.5 z M 6.390625,1.9823837 Q 6.1640625,2.5605087 5.828125,3.4745712 5.4921875,4.3886337 5.1171875,5.4511337 4.75,6.5136337 4.4296875,7.5526962 4.109375,8.5917587 3.90625,9.4276962 3.703125,10.263634 3.703125,10.716759 q -0.00781,1.398437 0.96875,2.398437 0.484375,0.476563 1.1171875,0.726563 0.6328125,0.25 1.3046875,0.234375 h 6.429688 q 1.242187,0 2.140625,-0.398438 0.906249,-0.390625 1.492187,-1.054687 0.585937,-0.65625 0.867187,-1.476563 0.28125,-0.828125 0.28125,-1.6874998 -0.04687,-0.75 -0.382812,-1.4140625 -0.34375,-0.671875 -0.914063,-1.15625 -1.249999,-1.203125 -2.984374,-1.25 -1.296875,0.09375 -2.34375,0.8671875 -0.820313,0.6171875 -1.289063,1.53125 0.03906,0.054687 0.07813,0.109375 l 1.664063,2.7499998 q 0.125,0.195313 0.07031,0.421875 -0.05469,0.226563 -0.257812,0.351563 -0.195313,0.117187 -0.421875,0.0625 -0.226563,-0.05469 -0.351563,-0.25 L 9.6640625,8.9901962 q -0.085937,0.023437 -0.171875,0.023437 -0.070312,0 -0.1484375,-0.015625 L 7.875,11.380821 q -0.125,0.195313 -0.3515625,0.25 -0.2265625,0.05469 -0.421875,-0.07031 -0.1953125,-0.117188 -0.25,-0.34375 -0.054687,-0.234375 0.0625,-0.429688 L 8.546875,8.1386337 q 0.015625,-0.023437 0.039063,-0.0625 -0.203125,-0.40625 -0.5,-0.984375 Q 7.796875,6.5058212 7.515625,5.9511337 7.2421875,5.3964462 7.078125,5.0683212 v 0 Q 6.9375,4.7792587 6.921875,4.7558212 6.8671875,4.6386337 6.8671875,4.5058212 6.71875,4.4198837 6.5703125,4.3026962 6.421875,4.1855087 6.3125,4.0370712 L 5.9609375,3.5839462 H 9.5 q 0.039063,0 0.109375,-0.03125 0.070312,-0.03125 0.125,-0.1171875 0.046875,-0.070312 0.0625,-0.25 Q 9.8125,3.0058212 9.671875,2.6776962 L 9.5234375,2.3183212 H 8.4765625 L 7.75,1.3886337 q 0.34375,-0.0625 0.7265625,0.09375 0.3828125,0.1484375 0.6953125,0.3828125 0.3125,0.234375 0.4609375,0.421875 h 0.296875 q 0.093751,0 0.1640625,0.03125 0.07813,0.03125 0.125,0.0625 0.117188,0.078125 0.21875,0.1953125 0.01563,0.015625 0.03906,0.046875 v 0 q 0.08594,-0.1796875 0.0625,-0.375 0,-0.4765625 -0.265625,-0.84375 -0.265625,-0.3671875 -0.664063,-0.61718747 -0.390625,-0.25 -0.8125,-0.375 Q 8.375,0.27925873 8.0625,0.27925873 h -0.039063 q -0.4375,0 -0.7109375,0.171875 Q 7.046875,0.61519623 6.8359375,0.99019623 6.6328125,1.3651962 6.390625,1.9823837 Z M 22.22475,10.258793 q 0.32,-0.208 0.672,-0.208 0.144,0 1.056,0.208 l 0.896,0.416 h 0.048 q -0.208,-0.56 -0.448,-3.6479995 0,-0.176 -0.032,-1.312 -0.032,-1.136 -0.048,-1.696 0,-0.576 0.032,-1.456 0.048,-0.896 0.16,-1.488 0.032,-0.25600004 0.064,-0.35200004 l -0.48,-0.08 h -0.16 q -0.048,0 -0.192,0 -0.144,0 -0.208,0 -0.064,0 -0.192,0 -0.112,-0.016 -0.192,-0.032 -0.08,-0.016 -0.192,-0.048 -0.096,-0.048 -0.176,-0.112 -0.304,-0.224 -0.304,-0.304 v -0.816 q 0,-0.032 0.112,-0.144 0.112,-0.128 0.192,-0.16 1.216,0.032 1.824,0.304 0.32,0.048 1.232,0.16 0.928,0.112 1.376,0.192 0.448,0.08 1.168,0.24 0.736,0.16 1.312,0.416 0.576,0.256 1.088,0.608 1.744,1.36000004 1.632,2.46400004 0.096,0.576 -0.16,1.152 -0.256,0.576 -0.544,0.912 -0.288,0.32 -0.832,0.848 0.192,0.192 0.704,0.624 0.512,0.432 0.72,0.688 0.912,1.36 0.496,2.32 -0.448,0.9119995 -1.36,1.4559995 -0.896,0.56 -1.968,0.656 -1.296,0.224 -2.752,0.224 -1.216,0 -2.32,-0.112 -0.112,0 -0.672,-0.048 -0.56,-0.048 -0.64,-0.064 -0.304,-0.032 -0.496,-0.08 -0.192,-0.048 -0.384,-0.192 -0.192,-0.128 -0.272,-0.336 -0.208,-0.944 0.24,-1.2 z m 6.08,-9.0079995 q -0.832,-0.25600004 -2.704,-0.41600004 0.192,1.16800004 0.24,4.65600004 0.112,0.016 0.128,0.016 0.256,-0.128 0.912,-0.096 0.032,0 0.24,0.032 0.208,0.032 0.384,0.064 0.176,0.016 0.24,0 0.976,-0.08 1.632,-0.288 0.672,-0.208 1.248,-0.72 0.656,-0.384 0.304,-1.52 -0.384,-0.608 -1.12,-1.072 -0.736,-0.48 -1.504,-0.656 z m -1.936,8.9599995 q 0,0.448 -0.032,0.528 1.616,0.064 2.16,0.032 0.4,-0.032 0.608,-0.048 0.208,-0.032 0.608,-0.096 0.416,-0.08 0.656,-0.192 0.256,-0.128 0.528,-0.288 0.288,-0.1759995 0.448,-0.4479995 0.16,-0.288 0.192,-0.64 -0.272,-1.088 -1.92,-1.424 -0.384,-0.16 -0.832,-0.224 -0.448,-0.064 -1.024,-0.096 -0.576,-0.032 -0.88,-0.08 -0.144,0 -0.816,0.192 -0.032,0.16 0.096,1.408 0.144,1.2319995 0.208,1.3759995 z m 7.807989,-3.2479995 q 0.112,-0.704 0.48,-1.216 0.368,-0.512 1.04,-1.12 0.576,-0.288 1.488,-0.288 1.12,0 1.84,0.384 1.36,0.848 1.936,1.424 0,0.048 0.016,0.24 0.016,0.192 -0.016,0.32 -0.016,0.128 -0.112,0.144 -0.512,0.08 -1.04,-0.16 -0.128,-0.08 -0.416,-0.24 -0.288,-0.176 -0.432,-0.256 -0.144,-0.08 -0.384,-0.16 -0.24,-0.08 -0.464,-0.096 -0.128,0 -0.416,0 -0.288,-0.016 -0.464,0 -0.16,0 -0.4,0.048 -0.24,0.048 -0.432,0.16 l -0.096,0.096 q -0.576,0.768 -0.72,1.184 0.032,0.48 0,0.864 -0.032,0.368 -0.016,0.848 0.032,0.48 0.128,0.848 0.112,0.1919995 0.128,0.3839995 0.016,0.176 -0.08,0.416 -0.096,0.24 -0.144,0.336 -0.032,0.08 -0.208,0.368 -0.144,0.192 -0.352,0.192 -0.224,0 -0.464,-0.192 -0.384,-0.24 -0.608,-0.896 0,-2.5279995 0.208,-3.6319995 z m 12.992004,-0.224 0.08,0.016 q 0.064,-0.656 0.272,-0.88 0.176,-0.224 0.288,-0.224 0.048,0 0.112,0 0.112,-0.016 0.192,0.016 0.096,0.032 0.224,0.16 0.144,0.112 0.192,0.144 0.256,0.416 0.208,1.008 0,0.032 -0.304,0.752 -0.112,0.592 -0.032,1.216 0.08,0.608 0.448,1.1039995 0.304,0.704 0.048,1.024 -0.064,0.16 -0.24,0.16 -0.096,0 -0.24,-0.048 -0.128,-0.048 -0.304,-0.128 -0.176,-0.08 -0.24,-0.096 -0.576,-0.384 -0.736,-1.2639995 -0.64,0.6879995 -1.232,1.0079995 -0.576,0.304 -1.568,0.528 -0.528,0.064 -1.04,-0.128 -0.496,-0.192 -0.736,-0.384 -0.24,-0.192 -0.816,-0.704 -0.224,-0.3039995 -0.368,-0.5759995 -0.128,-0.272 -0.192,-0.592 -0.048,-0.32 -0.064,-0.464 -0.016,-0.16 0,-0.592 0.016,-0.448 0.016,-0.608 0.096,-0.096 0.096,-0.304 v -0.096 q -0.048,-0.24 0.208,-1.12 0.032,-0.064 0.176,-0.208 0.16,-0.16 0.224,-0.192 0.144,-0.032 0.512,0.032 0.368,0.064 0.4,0.064 0.128,0.032 0.192,0.112 0.08,0.08 0.096,0.208 0.032,0.112 0.032,0.208 0,0.096 -0.016,0.256 0,0.16 0,0.224 0,0.032 -0.048,0.112 l -0.048,0.096 q -0.32,0.688 -0.32,1.44 -0.048,0.416 0.208,0.864 0.256,0.432 0.624,0.736 0.768,0.176 0.944,0.176 0.336,0 0.672,-0.176 0.256,-0.096 0.48,-0.256 0.24,-0.176 0.384,-0.32 0.16,-0.16 0.352,-0.448 0.208,-0.288 0.288,-0.416 0.08,-0.144 0.288,-0.512 0.208,-0.368 0.272,-0.464 0,-0.08 0,-0.24 0.016,-0.16 0.016,-0.224 z m 5.088013,1.504 0.032,-1.312 q 0,-0.464 -0.08,-1.424 -0.096,-0.368 -0.176,-0.432 -1.056,0.08 -1.616,0.352 -0.144,0 -0.416,0.112 -0.272,0.112 -0.464,0.08 -0.112,-0.048 -0.224,-0.144 -0.112,-0.096 -0.224,-0.224 -0.128,-0.144 -0.208,-0.208 -0.064,-0.16 -0.048,-0.448 0.016,-0.288 0.112,-0.432 l 0.528,-0.464 q 0.832,-0.016 2.48,-0.32 l 0.112,-0.128 0.032,-2.51200004 q 0.368,-0.4 0.912,-0.288 0.432,0.336 0.48,0.83200004 0.048,0.096 0.064,0.8 0.016,0.704 0.128,0.816 0.016,0 0.144,0.048 0.144,0.032 0.16,0.048 0.32,-0.032 0.816,-0.112 0.496,-0.096 0.72,-0.112 0.224,-0.016 0.816,0.016 l 0.736,0.032 q 0.688,0.096 0.512,0.8 -0.272,0.272 -0.416,0.304 -0.368,0.032 -0.752,0.096 -0.384,0.064 -0.96,0.208 -0.56,0.128 -0.752,0.16 l -0.032,0.016 q -0.416,0.016 -0.944,0.208 l -0.08,0.112 q 0,0.192 -0.032,0.64 -0.016,0.432 0,0.752 0.016,0.304 0.096,0.624 0,2.8 0.288,3.4879995 0.32,0.288 0.576,0.304 0.144,0 0.368,-0.048 0.064,-0.016 0.192,-0.048 0.128,-0.032 0.176,-0.032 0.048,-0.016 0.144,-0.048 0.096,-0.032 0.128,-0.048 0.048,-0.016 0.112,-0.048 0.08,-0.048 0.112,-0.096 0.048,-0.048 0.112,-0.112 0.064,-0.064 0.112,-0.1439995 0.064,-0.08 0.128,-0.176 0.064,-0.112 0.144,-0.24 -0.016,-0.08 0.048,-0.384 0.064,-0.304 0.096,-0.384 0.176,-0.496 0.64,-0.48 0.224,-0.032 0.336,0.08 0.112,0.112 0.208,0.4 l 0.08,0.272 q -0.112,0.784 -0.24,0.976 -0.32,0.6399995 -0.496,0.8799995 -0.16,0.24 -0.592,0.496 -0.432,0.272 -1.328,0.56 -0.048,0.016 -0.368,0.128 -0.32,0.128 -0.496,0.128 -0.736,-0.032 -1.088,-0.48 -0.048,-0.096 -0.288,-0.496 -0.24,-0.416 -0.336,-0.72 -0.096,-0.32 -0.048,-0.6719995 -0.016,-0.288 -0.08,-0.832 -0.064,-0.544 -0.08,-0.688 -0.016,-0.016 -0.016,-0.032 z m 8.000009,-1.552 q 1.152,-1.472 2.528,-1.92 0.88,-0.112 0.928,-0.112 0.992,0.032 1.728,0.608 0.736,0.56 0.784,1.536 0.016,0.848 -0.688,1.552 -0.688,0.704 -1.536,0.768 -0.32,0.112 -0.688,0.112 -0.832,0 -1.84,-0.608 -0.304,-0.304 -0.4,-0.304 -0.064,-0.032 -0.112,0 -0.528,0.8 -0.512,1.216 0.176,1.0399995 1.12,1.7599995 0.944,0.736 2,0.672 0.16,0.064 0.56,0 0.4,-0.048 0.528,-0.08 0.144,-0.032 0.544,-0.16 0.416,-0.112 0.576,-0.16 0.56,-0.224 1.488,-0.288 h 0.112 q 0.112,-0.032 0.208,0.048 0.096,0.08 0.112,0.24 v 0.592 q -0.576,0.656 -1.424,0.704 -0.176,0.048 -0.64,0.176 -0.448,0.128 -0.688,0.176 -0.224,0.064 -0.608,0.112 -0.368,0.064 -0.672,0.048 -1.408,0.064 -2.704,-0.72 -1.184,-0.608 -1.824,-2.112 -0.24,-0.9439995 0.08,-1.8399995 0.32,-0.896 1.04,-2.016 z m 1.248,0.768 q 0.336,0 0.576,0.048 0.144,0.08 0.272,0.128 0.144,0.032 0.336,0.064 0.208,0.016 0.272,0.016 0.064,0 0.336,0 0.288,0 0.304,0 0.832,-0.256 1.104,-0.72 0.048,-0.176 0,-0.304 -0.032,-0.144 -0.176,-0.24 -0.144,-0.096 -0.272,-0.144 -0.128,-0.048 -0.352,-0.112 -0.208,-0.08 -0.304,-0.112 -0.384,0 -0.784,0.224 -0.4,0.208 -0.64,0.416 -0.24,0.208 -0.608,0.576 0,0.016 -0.032,0.08 -0.032,0.048 -0.032,0.08 z m 11.441951,-3.6951598 3.695313,-3.68749997 1.078125,0.109375 q -0.609375,0.625 -0.9375,0.91406247 -0.328125,0.28125 -0.414063,0.6484375 -0.0625,0.2421875 0.0078,0.4921875 0.07031,0.2421875 0.25,0.421875 v 0 l 0.90625,0.8984375 -2.390625,2.390625 z m 5.984375,-3.19531247 v 0 q 0.179688,-0.171875 0.226563,-0.4140625 0.05469,-0.234375 -0.02344,-0.46875 -0.07813,-0.2265625 -0.273437,-0.3828125 -0.195313,-0.1484375 -0.4375,-0.171875 L 76.626404,-1.0644913 q -0.195313,-0.015625 -0.375,0.046875 -0.179688,0.0625 -0.3125,0.19531253 L 71.954529,3.1620712 q -0.03125,0.03125 -0.04687,0.054687 -0.398438,-0.046875 -0.773438,0.078125 -0.367187,0.125 -0.648437,0.40625 l -0.445313,0.4453125 q -0.203125,0.203125 -0.203125,0.4921875 0,0.296875 0.203125,0.5 l 3.570313,3.5703125 q 0.203125,0.203125 0.5,0.203125 0.289062,0 0.492187,-0.203125 l 0.445313,-0.4453125 q 0.460937,-0.4609375 0.492187,-1.109375 l 7.40625,7.4062503 q 0.664063,0.65625 1.59375,0.65625 0.929688,0 1.59375,-0.65625 0.65625,-0.664063 0.65625,-1.59375 0,-0.9375 -0.65625,-1.59375 L 78.688904,3.9276962 q 0.117187,-0.2421875 0.07031,-0.5078125 -0.04687,-0.265625 -0.234375,-0.453125 l -1,-1 z m -2.59375,5.78124997 1.585938,-1.59375 7.414062,7.4140628 q 0.320313,0.328125 0.3125,0.789062 0,0.460938 -0.328125,0.789063 -0.328125,0.328125 -0.789062,0.328125 -0.460938,0.0078 -0.789063,-0.3125 z M 71.282654,4.4980087 q 0.164062,-0.1640625 0.398437,-0.1640625 0.234375,0 0.398438,0.1640625 l 2.171875,2.171875 q 0.164062,0.1640625 0.164062,0.3984375 0,0.234375 -0.164062,0.3984375 L 74.110779,7.6151962 71.134216,4.6386337 Z"
           id="text1"
           style="font-size:16px;font-family:'Virgil 3 YOFF';-inkscape-font-specification:'Virgil 3 YOFF, Normal';dominant-baseline:text-before-edge;white-space:pre;fill:#1971c2"
           aria-label="ðŸ’ªBruteðŸ”¨" /></g><g
         transform="translate(37.170191,12.615421)"
         id="g2"
         inkscape:label="g2"><path
           d="m 0.368,10.338793 q 0,-0.096 0.048,-0.5599995 0.048,-0.48 0.048,-0.56 l 0.032,-0.32 0.144,-1.088 q 0,-0.064 0,-0.128 0.016,-0.08 0.016,-0.128 0.016,-0.048 0.016,-0.064 v -0.304 q 0,-0.096 0.048,-0.48 0.048,-0.384 0.048,-0.416 0.112,-0.336 0.112,-0.416 v -1.52 q -0.064,-0.064 -0.192,-0.336 -0.112,-0.288 -0.112,-0.368 -0.08,-0.528 0,-1.12 0.048,-0.112 0.176,-0.192 0.144,-0.08 0.368,-0.128 0.224,-0.064 0.256,-0.08 0.592,0.128 0.816,0.096 0.336,0 0.704,-0.08 0.384,-0.08 0.592,-0.144 0.224,-0.08 0.704,-0.24 0.48,-0.176 0.64,-0.24 0.208,-0.048 0.672,-0.16 0.48,-0.128 0.8,-0.176 0.336,-0.064 0.752,-0.064 0.176,-0.016 0.752,0.08 l 0.56,0.112 0.16,0.112 q 0.16,0.128 0.24,0.208 0.08,0.064 0.176,0.192 0.112,0.112 0.128,0.208 v 1.008 q -0.064,0.128 -0.304,0.192 -0.224,0.064 -0.4,0.016 -0.064,-0.032 -0.352,-0.336 -0.272,-0.304 -0.464,-0.272 -1.792,-0.08 -2.928,0.304 -0.176,0.08 -0.72,0.272 -0.544,0.176 -0.896,0.352 -0.352,0.16 -0.608,0.384 l -0.112,0.096 q 0,0.112 -0.048,0.72 -0.048,0.608 -0.048,0.704 v 0.112 q -0.016,0.048 0.032,0.208 0.064,0.16 0.064,0.192 0.368,-0.112 1.024,-0.112 h 0.704 q 0.272,-0.064 1.024,-0.288 0.768,-0.24 1.312,-0.368 0.56,-0.128 1.008,-0.144 0.16,0 0.512,0 0.352,-0.016 0.576,-0.016 0.24,-0.016 0.528,0.016 0.304,0.032 0.512,0.096 0.72,0.48 0.608,0.864 0.064,0.368 -0.416,0.544 -0.096,0.048 -0.416,-0.064 -0.32,-0.128 -0.384,-0.128 -0.992,-0.128 -1.936,0.064 -0.944,0.192 -2.224,0.64 -0.176,0.064 -0.448,0.16 -0.256,0.08 -0.384,0.128 -0.128,0.048 -0.32,0.128 -0.192,0.08 -0.368,0.192 l -0.064,0.032 -0.176,0.144 -0.064,0.032 q -0.144,0.032 -0.448,-0.032 -0.288,-0.08 -0.352,-0.08 -0.08,0.032 -0.128,0.144 -0.032,0.112 -0.048,0.272 -0.016,0.144 -0.032,0.192 -0.016,0.16 -0.016,1.024 h 0.176 q 0.272,0 0.464,-0.016 l 1.248,-0.064 q 0.192,-0.016 0.464,-0.016 0.288,0 0.304,-0.016 0.368,-0.08 1.312,-0.128 0.944,-0.064 1.024,-0.064 1.264,-0.064 2.624,0.192 0.224,0.08 0.336,0.288 0.128,0.192 0.064,0.4319995 -0.128,0.176 -0.304,0.304 -0.672,0.016 -1.824,0.144 -1.136,0.128 -1.616,0.16 -0.112,0.016 -0.608,0.096 -0.48,0.08 -0.912,0.16 -0.432,0.08 -0.608,0.144 -0.144,0.016 -0.464,0.128 -0.304,0.112 -0.4,0.08 l -1.008,0.208 q -0.288,-0.08 -0.544,-0.336 -0.096,0.096 -0.32,0.208 -0.432,0.08 -0.704,-0.288 -0.144,-0.208 -0.208,-0.512 z m 10.767997,0.544 v -0.064 q 0.112,-0.16 0.704,-0.608 0.144,-0.048 0.992,-0.5599995 0.112,-0.112 0.64,-0.56 0.544,-0.464 0.704,-0.8 -0.096,-0.16 -0.224,-0.304 -0.128,-0.144 -0.32,-0.32 -0.176,-0.176 -0.272,-0.288 -0.752,-0.784 -0.912,-1.104 v -0.72 q 0.032,-0.112 0.416,-0.496 0.096,-0.112 0.224,-0.112 0.064,0 0.128,0.016 0.064,0.016 0.144,0.048 0.08,0.032 0.112,0.048 0.016,0 0.08,0.08 0.08,0.064 0.176,0.176 0.112,0.112 0.144,0.144 0.176,0.192 0.656,0.864 0.496,0.672 0.864,0.96 0.08,0.016 0.128,0.016 0.032,0 0.096,-0.016 h 0.08 q 0.112,-0.064 0.864,-0.608 0.768,-0.544 1.152,-0.704 1.52,-0.944 2.896,-1.024 0.032,-0.032 0.08,0 0.048,0.016 0.064,0.032 0.032,0 0.064,0.048 0.048,0.048 0.064,0.08 0.016,0.016 0.048,0.08 0.032,0.048 0.032,0.064 0,0.048 0,0.208 0.016,0.144 -0.016,0.24 -0.016,0.08 -0.096,0.16 -0.336,0.288 -0.8,0.416 -0.144,0.064 -0.688,0.32 -0.528,0.256 -0.688,0.336 -0.144,0.08 -0.544,0.304 -0.4,0.208 -0.608,0.368 -0.192,0.144 -0.48,0.384 -0.288,0.24 -0.544,0.512 -0.032,0.096 0,0.208 l 0.912,0.912 q 0.032,0.032 0.416,0.192 0.048,0.016 0.224,0.048 0.192,0.016 0.304,0.064 0.112,0.032 0.176,0.096 0.256,0.432 0.208,0.64 0,0.416 -0.512,0.576 -0.208,-0.016 -0.384,0 -0.176,0.016 -0.384,0 -0.192,-0.032 -0.352,-0.112 -0.336,-0.208 -0.944,-0.752 -0.592,-0.5599995 -0.88,-0.7519995 -0.032,-0.016 -0.112,-0.016 -0.08,0 -0.112,0 -0.288,0.112 -0.528,0.288 -0.224,0.1759995 -0.56,0.5279995 -0.32,0.336 -0.4,0.4 -0.096,0.096 -0.496,0.544 -0.4,0.464 -0.624,0.656 -0.304,0.256 -0.496,0.224 -0.176,0.032 -0.512,-0.224 -0.416,-0.688 -0.304,-1.136 z m 8.896004,-2.7519995 q 0.112,-0.752 0.432,-1.264 0.336,-0.512 0.992,-1.072 0.544,-0.624 1.312,-0.944 0.768,-0.32 1.52,-0.176 0.336,-0.016 0.688,0.176 0.368,0.192 0.512,0.336 0.16,0.144 0.528,0.512 0.368,0.496 0.304,1.52 -0.208,0.384 -0.416,0.4 -0.048,0 -0.272,0.032 -0.224,0.016 -0.352,-0.032 -0.112,-0.048 -0.176,-0.208 -0.32,-0.848 -0.496,-0.944 -0.24,-0.16 -0.56,-0.176 -0.32,-0.016 -0.576,0.016 -0.384,0.096 -0.752,0.4 -0.368,0.288 -0.56,0.528 -0.176,0.224 -0.512,0.688 0,0.048 -0.064,0.32 -0.048,0.272 -0.032,0.496 0.032,0.224 0.208,0.304 0.512,0.624 1.088,0.832 0.688,0.2719995 2.448,0.5759995 l 1.936,0.416 q 0.112,0.096 0.208,0.304 0.112,0.192 0.096,0.288 -0.064,0.208 -0.32,0.416 -0.24,0.208 -0.496,0.288 -0.624,0.064 -1.616,-0.208 -1.744,-0.32 -2.336,-0.496 -1.568,-0.512 -2.336,-1.5039995 -0.512,-0.688 -0.4,-1.824 z m 14.304013,0.816 q -0.128,0.096 -0.304,0.4 -0.848,0.9279995 -1.664,1.4879995 -0.8,0.544 -1.744,0.528 -0.496,0.064 -1.024,-0.128 -0.528,-0.208 -0.832,-0.576 -0.144,-0.224 -0.208,-0.304 -0.048,-0.096 -0.16,-0.288 -0.112,-0.2079995 -0.16,-0.3359995 -0.032,-0.128 -0.08,-0.304 -0.048,-0.176 -0.048,-0.336 0,-0.176 0.048,-0.352 0.016,-0.544 0.352,-1.104 0.352,-0.56 0.704,-0.896 0.352,-0.336 0.912,-0.8 0.112,-0.08 0.16,-0.128 0.672,-0.544 1.824,-0.544 0.24,0 1.52,0.128 0.032,0.032 0.208,0.112 0.192,0.08 0.272,0.176 0.08,0.08 0.016,0.224 l 0.208,0.208 q 0.48,0.208 0.608,0.4 0.8,1.632 1.408,2.624 0.064,0.08 0.4,0.368 0.352,0.272 0.416,0.352 0.128,0.096 0.304,0.2719995 0.192,0.16 0.32,0.24 0.128,0.08 0.288,0.096 0.016,0.016 0.208,0.192 0.016,0.048 -0.016,0.128 -0.016,0.064 -0.048,0.16 -0.032,0.096 -0.048,0.128 -0.16,0.24 -0.704,0.384 -0.192,0 -0.272,0.016 -0.064,0.032 -0.224,-0.032 -0.144,-0.048 -0.208,-0.08 -0.048,-0.016 -0.208,-0.112 -0.16,-0.096 -0.24,-0.144 l -0.064,-0.032 q -0.4,-0.336 -1.104,-1.1519995 -0.688,-0.832 -0.816,-0.976 z m -4.656,0.496 q 0.288,0.432 0.864,0.432 0.272,0 0.752,-0.128 0.784,-0.288 1.424,-1.008 0.624,-0.864 0.704,-1.52 0,-0.048 0.064,-0.368 0.064,-0.336 0.048,-0.464 -0.32,0.08 -0.928,0.128 -0.592,0.032 -0.912,0.096 -0.416,0.064 -0.848,0.4 -0.432,0.32 -0.656,0.608 -0.224,0.288 -0.608,0.816 -0.272,0.336 0.096,1.008 z m 10.015997,-1.024 q 0.016,-0.96 0.112,-2.576 0.096,-1.632 0.112,-2.272 -0.016,-0.784 0.064,-2.92800004 0.08,-2.14399996 0.032,-3.13599996 0.128,-0.416 0.48,-0.416 0.448,0 0.736,0.512 0,0.208 0.016,0.384 l 0.064,1.15199996 q 0.016,0.176 0.016,0.384 -0.032,1.50400004 -0.208,4.40000004 -0.16,2.896 -0.192,4.096 0.016,0.224 0.048,0.688 0.032,0.464 0.048,0.688 0.032,0.208 0.08,0.544 0.064,0.3199995 0.16,0.5919995 0.112,0.256 0.272,0.512 0.016,0.224 -0.112,0.4 -0.208,0.128 -0.528,0.128 -0.368,0 -0.576,-0.128 -0.272,-0.288 -0.416,-0.72 -0.144,-0.432 -0.176,-0.672 -0.032,-0.2399995 -0.032,-0.8799995 0,-0.656 0,-0.752 z m 3.216008,-6.08 q 0.096,-0.24 0.336,-0.384 0.256,-0.16 0.528,-0.128 0.096,-0.016 0.176,0 0.08,0.016 0.16,0.064 0.096,0.048 0.144,0.08 0.048,0.032 0.128,0.144 0.096,0.112 0.128,0.144 0.032,0.016 0.128,0.16 l 0.096,0.128 q 0.064,0.16 0.608,0.704 0.112,0.16 0.112,0.384 0.016,0.208 -0.112,0.336 h -0.352 q -0.272,0.048 -0.56,-0.032 -0.272,-0.08 -0.736,-0.32 -0.448,-0.24 -0.48,-0.256 -0.272,-0.16 -0.368,-0.448 -0.08,-0.304 0.064,-0.576 z m 1.024,8.1119995 q -0.032,-0.192 -0.096,-0.8319995 -0.064,-0.656 -0.128,-1.36 -0.064,-0.72 -0.08,-0.848 -0.032,-0.432 0,-0.912 0.24,-0.416 0.8,-0.304 0.208,0.096 0.416,0.608 0,0.336 0.048,0.704 0.064,0.368 0.112,0.624 0.064,0.256 0.176,0.672 0.112,0.416 0.16,0.64 0,0.128 -0.032,0.416 -0.016,0.2719995 -0.048,0.5279995 -0.016,0.256 -0.016,0.272 -0.016,0.048 -0.048,0.176 -0.016,0.128 -0.048,0.208 -0.016,0.08 -0.08,0.176 -0.048,0.08 -0.128,0.128 -0.432,0.08 -0.704,-0.192 -0.272,-0.48 -0.304,-0.704 z m 2.351998,-1.9359995 v -0.112 q 0.16,-1.28 1.216,-2.256 1.056,-0.992 2.32,-0.784 0.592,0.032 1.056,0.448 0.48,0.416 0.464,0.976 0,0.16 -0.096,0.208 -0.096,0.032 -0.272,0.016 -0.176,-0.032 -0.24,-0.016 -0.816,-0.288 -1.52,-0.208 -1.632,0.832 -1.616,2.128 -0.128,0.528 0.224,0.832 0.352,0.3039995 0.88,0.3039995 0.368,0 0.624,-0.1279995 1.712,-0.896 2.832,-3.44 0,-0.352 0.016,-0.64 l 0.064,-1.952 q 0.016,-0.288 0.016,-0.64 0.144,-1.552 0.304,-2.032 0.016,-0.22400004 0.08,-0.59200004 0.064,-0.384 0.128,-0.784 0.08,-0.416 0.096,-0.544 0.064,-0.46399996 0.512,-0.60799996 0.256,0.016 0.56,0.176 0.304,0.14399996 0.336,0.33599996 0.08,0.192 0.096,0.432 0.032,0.24 0.016,0.432 -0.016,0.192 0,0.448 -0.016,0.112 0.032,0.62400004 0.064,0.496 0.064,0.592 0,0.592 -0.208,2.32 -0.048,0.336 -0.304,0.96 -0.256,0.624 -0.304,0.96 v 1.024 q 0.016,0.016 0.016,0.048 l 0.08,0.192 0.016,0.048 0.304,1.024 q 0.096,0.384 0.24,0.752 0.144,0.352 0.368,0.88 0.224,0.5119995 0.304,0.6879995 0.032,0.496 -0.208,0.688 -0.064,0.096 -0.176,0.096 -0.08,0 -0.528,-0.272 -0.16,-0.16 -0.32,-0.368 -0.144,-0.224 -0.24,-0.4 -0.096,-0.176 -0.24,-0.4799995 -0.128,-0.32 -0.176,-0.448 -0.048,-0.144 -0.176,-0.496 -0.128,-0.368 -0.16,-0.448 -0.208,0.128 -0.688,0.752 -0.464,0.608 -0.528,0.672 -1.152,1.1839995 -2.128,1.5039995 -0.976,0.128 -1.184,0.128 -0.784,0 -1.248,-0.416 -0.224,-0.176 -0.4,-0.416 -0.256,-0.416 -0.32,-1.0719995 -0.048,-0.656 0.016,-1.136 z m 9.584004,-1.552 q 0.112,-0.704 0.48,-1.216 0.368,-0.512 1.04,-1.12 0.576,-0.288 1.488,-0.288 1.12,0 1.84,0.384 1.36,0.848 1.936,1.424 0,0.048 0.016,0.24 0.016,0.192 -0.016,0.32 -0.016,0.128 -0.112,0.144 -0.512,0.08 -1.04,-0.16 -0.128,-0.08 -0.416,-0.24 -0.288,-0.176 -0.432,-0.256 -0.144,-0.08 -0.384,-0.16 -0.24,-0.08 -0.464,-0.096 -0.128,0 -0.416,0 -0.288,-0.016 -0.464,0 -0.16,0 -0.4,0.048 -0.24,0.048 -0.432,0.16 l -0.096,0.096 q -0.576,0.768 -0.72,1.184 0.032,0.48 0,0.864 -0.032,0.368 -0.016,0.848 0.032,0.48 0.128,0.848 0.112,0.1919995 0.128,0.3839995 0.016,0.176 -0.08,0.416 -0.096,0.24 -0.144,0.336 -0.032,0.08 -0.208,0.368 -0.144,0.192 -0.352,0.192 -0.224,0 -0.464,-0.192 -0.384,-0.24 -0.608,-0.896 0,-2.5279995 0.208,-3.6319995 z m 12.832004,1.984 q -0.128,0.096 -0.304,0.4 -0.848,0.9279995 -1.664,1.4879995 -0.8,0.544 -1.744,0.528 -0.496,0.064 -1.024,-0.128 -0.528,-0.208 -0.832,-0.576 -0.144,-0.224 -0.208,-0.304 -0.048,-0.096 -0.16,-0.288 -0.112,-0.2079995 -0.16,-0.3359995 -0.032,-0.128 -0.08,-0.304 -0.048,-0.176 -0.048,-0.336 0,-0.176 0.048,-0.352 0.016,-0.544 0.352,-1.104 0.352,-0.56 0.704,-0.896 0.352,-0.336 0.912,-0.8 0.112,-0.08 0.16,-0.128 0.672,-0.544 1.824,-0.544 0.24,0 1.52,0.128 0.032,0.032 0.208,0.112 0.192,0.08 0.272,0.176 0.08,0.08 0.016,0.224 l 0.208,0.208 q 0.48,0.208 0.608,0.4 0.8,1.632 1.408,2.624 0.064,0.08 0.4,0.368 0.352,0.272 0.416,0.352 0.128,0.096 0.304,0.2719995 0.192,0.16 0.32,0.24 0.128,0.08 0.288,0.096 0.016,0.016 0.208,0.192 0.016,0.048 -0.016,0.128 -0.016,0.064 -0.048,0.16 -0.032,0.096 -0.048,0.128 -0.16,0.24 -0.704,0.384 -0.192,0 -0.272,0.016 -0.064,0.032 -0.224,-0.032 -0.144,-0.048 -0.208,-0.08 -0.048,-0.016 -0.208,-0.112 -0.16,-0.096 -0.24,-0.144 l -0.064,-0.032 q -0.4,-0.336 -1.104,-1.1519995 -0.688,-0.832 -0.816,-0.976 z m -4.656,0.496 q 0.288,0.432 0.864,0.432 0.272,0 0.752,-0.128 0.784,-0.288 1.424,-1.008 0.624,-0.864 0.704,-1.52 0,-0.048 0.064,-0.368 0.064,-0.336 0.048,-0.464 -0.32,0.08 -0.928,0.128 -0.592,0.032 -0.912,0.096 -0.416,0.064 -0.848,0.4 -0.432,0.32 -0.656,0.608 -0.224,0.288 -0.608,0.816 -0.272,0.336 0.096,1.008 z m 9.167997,-2.8 q 0.016,-0.112 0.016,-0.336 0.016,-0.24 0.032,-0.368 0.016,-0.144 0.048,-0.288 0.048,-0.144 0.112,-0.208 0.336,-0.288 0.96,-0.416 0.112,-0.016 0.224,0.048 0.112,0.048 0.176,0.112 0.08,0.064 0.192,0.192 0.112,0.112 0.16,0.16 0,0.144 0.048,0.48 0.048,0.336 0.048,0.512 0.016,0.176 -0.096,0.416 -0.272,0.384 -0.4,1.424 -0.032,0.56 0,1.216 0.032,0.112 0.144,0.112 0.224,-0.128 0.624,-0.656 0.4,-0.528 0.448,-0.576 l 0.096,-0.192 q 0.016,-0.048 0.064,-0.288 0.064,-0.24 0.144,-0.32 0.288,-0.304 1.12,-0.416 0.128,0 0.24,0.08 0.112,0.08 0.16,0.16 0.064,0.08 0.16,0.256 0.112,0.176 0.144,0.224 0.192,0.672 0.192,1.008 l 0.208,0.208 h 0.304 q 0.432,-0.368 0.8,-0.784 0.384,-0.432 0.912,-1.136 0.544,-0.72 0.72,-0.928 0.08,-0.144 0.704,-1.008 l 0.8,-0.8 q 0.112,-0.096 0.24,-0.112 0.144,-0.016 0.32,0 0.176,0.016 0.256,0 0.368,0.272 0.096,1.024 -1.424,1.856 -2.416,3.024 -0.752,1.104 -1.888,2.2079995 -0.56,0.528 -1.36,0.528 -0.72,-0.256 -1.104,-1.12 l -0.112,-0.096 q -0.288,0.1599995 -0.848,0.7519995 -0.544,0.576 -0.96,0.752 -0.048,0 -0.208,0 -0.144,0.016 -0.24,0.016 -0.08,0 -0.192,-0.032 -0.112,-0.032 -0.176,-0.08 -0.432,-0.272 -0.704,-1.2 -0.096,-0.3839995 -0.128,-0.8639995 -0.016,-0.48 0.016,-0.848 0.032,-0.384 0,-0.88 v -0.448 q 0,-0.016 -0.048,-0.24 -0.048,-0.24 -0.048,-0.272 z"
           id="text2"
           style="font-size:16px;font-family:'Virgil 3 YOFF';-inkscape-font-specification:'Virgil 3 YOFF, Normal';dominant-baseline:text-before-edge;white-space:pre;fill:#1971c2"
           aria-label="Excalidraw" /></g><g
         transform="translate(8.7857264,53.648429)"
         id="g3"><path
           d="m 16.953125,0.01363373 h -1.40625 q -0.539062,0 -0.8125,0.4765625 l -0.367187,0.64843747 -1.125,1.6875 H 11.0625 q -0.257812,0 -0.320312,0.25 l -0.25,0.8828125 h 3.265625 q 0.25,0 0.429687,0.070312 0.179688,0.070312 0.179688,0.4921875 0,0.4140625 -0.179688,0.484375 -0.171875,0.070312 -0.414062,0.078125 h -0.01563 -3.578125 l -0.320313,1.125 h 9.007812 V 2.8261337 h -1.6875 V 0.24800873 h -0.0078 q 0,-0.234375 -0.21875,-0.234375 z M 16.242187,5.0761337 h -0.382812 q -0.15625,0 -0.265625,-0.109375 -0.101562,-0.109375 -0.101562,-0.265625 v -0.375 q 0,-0.1484375 0.101562,-0.2578125 0.109375,-0.109375 0.265625,-0.109375 h 0.382812 q 0.148438,0 0.257813,0.109375 0.109375,0.1015625 0.109375,0.2578125 v 0.375 q 0,0.15625 -0.109375,0.265625 -0.101563,0.109375 -0.257813,0.109375 z M 3.671875,6.7714462 h 15.195312 v 6.0078128 q -0.484375,0 -0.78125,0.132812 -0.296875,0.140625 -0.5,0.273438 h -0.0078 q -0.15625,0.101562 -0.296875,0.164062 -0.132813,0.0625 -0.382813,0.0625 -0.242187,0 -0.382812,-0.0625 -0.132813,-0.0625 -0.296875,-0.164062 v 0 q -0.210938,-0.132813 -0.507812,-0.273438 -0.296875,-0.132812 -0.789063,-0.132812 -0.492187,0 -0.789062,0.132812 -0.296875,0.140625 -0.5,0.273438 v 0 q -0.164063,0.101562 -0.304688,0.164062 -0.132812,0.0625 -0.375,0.0625 -0.25,0 -0.382812,-0.0625 -0.132813,-0.0625 -0.296875,-0.164062 h -0.0078 q -0.203125,-0.132813 -0.5,-0.273438 -0.296875,-0.132812 -0.789062,-0.132812 -0.484375,0 -0.78125,0.132812 -0.2968755,0.140625 -0.507813,0.273438 v 0 q -0.1640625,0.101562 -0.296875,0.164062 -0.1328125,0.0625 -0.3828125,0.0625 -0.2421875,0 -0.3828125,-0.0625 -0.1328125,-0.0625 -0.296875,-0.164062 v 0 Q 8.125,13.052696 7.828125,12.912071 7.53125,12.779259 7.0390625,12.779259 q -0.4921875,0 -0.7890625,0.132812 -0.296875,0.140625 -0.5,0.273438 h -0.00781 q -0.15625,0.101562 -0.296875,0.164062 -0.1328125,0.0625 -0.375,0.0625 -0.0625,0 -0.1171875,-0.0078 L 4.2265625,11.279259 3.125,7.4980087 q -0.078125,-0.2734375 0.09375,-0.5 0.171875,-0.2265625 0.453125,-0.2265625 z m 6.5625,2.8125 h 0.375 q 0.15625,0 0.265625,-0.109375 0.109375,-0.109375 0.109375,-0.2578125 V 8.8339462 q 0,-0.15625 -0.109375,-0.265625 -0.109375,-0.109375 -0.265625,-0.109375 h -0.375 q -0.15625,0 -0.265625,0.1171875 -0.109375,0.109375 -0.109375,0.2578125 v 0.3828125 q 0,0.1484375 0.109375,0.2578125 0.109375,0.109375 0.265625,0.109375 z m 2.632813,0 q 0.15625,0 0.265625,-0.109375 0.109375,-0.109375 0.109375,-0.2578125 V 8.8339462 q 0,-0.15625 -0.117188,-0.265625 -0.109375,-0.109375 -0.257812,-0.109375 h -0.382813 q -0.15625,0 -0.265625,0.1171875 -0.109375,0.109375 -0.109375,0.2578125 v 0.3828125 q 0,0.1484375 0.109375,0.2578125 0.109375,0.109375 0.265625,0.109375 z m 1.875,0 h 0.375 q 0.15625,0 0.265625,-0.109375 0.109375,-0.109375 0.109375,-0.2578125 V 8.8339462 q 0,-0.15625 -0.109375,-0.265625 -0.109375,-0.109375 -0.265625,-0.109375 h -0.375 q -0.164063,0 -0.273438,0.1171875 -0.101562,0.109375 -0.101562,0.2578125 v 0.3828125 q 0,0.1484375 0.101562,0.2578125 0.109375,0.109375 0.273438,0.109375 z m 2.624999,0 q 0.15625,0 0.265625,-0.109375 0.109375,-0.109375 0.109375,-0.2578125 V 8.8339462 q 0,-0.15625 -0.109375,-0.265625 -0.109375,-0.109375 -0.265625,-0.109375 h -0.375 q -0.15625,0 -0.265625,0.1171875 -0.109375,0.109375 -0.109375,0.2578125 v 0.3828125 q 0,0.1484375 0.109375,0.2578125 0.109375,0.109375 0.265625,0.109375 z m 0.523438,4.0703128 q -0.1875,0.125 -0.40625,0.21875 -0.210938,0.101562 -0.585938,0.101562 -0.367187,0 -0.585937,-0.101562 -0.210938,-0.09375 -0.398437,-0.210938 -0.1875,-0.125 -0.40625,-0.226562 -0.210938,-0.09375 -0.585938,-0.09375 -0.367187,0 -0.585937,0.09375 -0.21875,0.101562 -0.398438,0.21875 -0.1875,0.125 -0.40625,0.21875 -0.210937,0.101562 -0.578125,0.101562 -0.375,0 -0.59375,-0.101562 -0.210937,-0.09375 -0.390625,-0.21875 -0.1875,-0.117188 -0.40625,-0.21875 -0.210937,-0.09375 -0.585937,-0.09375 -0.367188,0 -0.585938,0.09375 -0.210937,0.101562 -0.3984375,0.21875 -0.1796875,0.125 -0.3984375,0.21875 -0.2109375,0.101562 -0.5859375,0.101562 -0.3671875,0 -0.5859375,-0.101562 -0.2109375,-0.09375 -0.3984375,-0.21875 -0.1875,-0.117188 -0.40625,-0.21875 -0.2109375,-0.09375 -0.578125,-0.09375 -0.3671875,0 -0.5859375,0.09375 -0.21875,0.101562 -0.3984375,0.226562 -0.1875,0.117188 -0.40625,0.210938 -0.2109375,0.101562 -0.578125,0.101562 -0.3671875,0 -0.5859375,-0.101562 Q 4.2734375,13.779259 4.0859375,13.654259 3.90625,13.537071 3.6875,13.435509 3.46875,13.341759 3.1015625,13.341759 v 1.304687 H 18.867187 l 0.0078,-1.304687 q -0.367188,0 -0.585938,0.09375 -0.210937,0.101562 -0.398437,0.21875 z M 29.476562,3.6386337 q 0.01563,0.039063 0.05469,0.039063 0.03906,-0.00781 0.03906,-0.054687 0.0078,-0.09375 0,-0.1875 -0.03125,-0.46875 -0.335937,-0.8046875 -0.296875,-0.3359375 -0.71875,-0.359375 -0.484375,-0.039063 -0.84375,0.34375 -0.351563,0.375 -0.351563,0.921875 v 0.085937 q 0.0078,0.046875 0.04687,0.054687 0.03906,0 0.05469,-0.039063 0.132812,-0.328125 0.40625,-0.53125 0.28125,-0.2109375 0.625,-0.2109375 0.34375,0 0.617187,0.2109375 0.273438,0.203125 0.40625,0.53125 z m 0.382813,2.3515625 q -0.882813,0 -1.609375,-0.3828125 Q 27.53125,5.2245712 27.140625,4.6151962 27.0625,4.4980087 26.90625,4.5292587 q -0.148438,0.03125 -0.148438,0.1640625 0,0.125 0.02344,0.265625 0.07031,0.640625 0.46875,1.1640625 0.40625,0.5234375 1.03125,0.84375 0.632812,0.3203125 1.382812,0.359375 0.898438,0.046875 1.640625,-0.296875 0.75,-0.34375 1.195313,-0.9609375 0.453125,-0.6171875 0.453125,-1.375 v -0.00781 q 0,-0.1328125 -0.15625,-0.15625 -0.148438,-0.03125 -0.21875,0.078125 -0.398438,0.6171875 -1.125,1 -0.71875,0.3828125 -1.59375,0.3828125 z m 1.40625,-3.09375 q 0.34375,0 0.617187,0.2109375 0.273438,0.203125 0.40625,0.53125 0.01563,0.039063 0.05469,0.039063 0.03906,-0.00781 0.04687,-0.054687 0.0078,-0.09375 0,-0.1875 -0.03125,-0.46875 -0.335938,-0.8046875 -0.296875,-0.3359375 -0.71875,-0.359375 -0.492187,-0.039063 -0.84375,0.34375 -0.351562,0.375 -0.351562,0.921875 v 0.085937 q 0,0.046875 0.03906,0.054687 0.03906,0 0.0625,-0.039063 0.132813,-0.328125 0.40625,-0.53125 0.273438,-0.2109375 0.617188,-0.2109375 z m 4.789062,8.1718748 q 0.796875,0 1.453125,0.421875 0.65625,0.414063 1.015625,1.09375 0.0625,0.125 0.203125,0.08594 0.140625,-0.03125 0.140625,-0.171875 0,-0.148438 -0.01563,-0.296875 -0.07031,-0.703125 -0.4375,-1.273438 -0.359375,-0.578125 -0.929687,-0.9296873 -0.570313,-0.359375 -1.257813,-0.40625 -0.8125,-0.046875 -1.492187,0.3359375 -0.679688,0.3749998 -1.09375,1.0546878 -0.40625,0.679687 -0.40625,1.515625 v 0 q 0,0.148437 0.140625,0.179687 0.140625,0.03125 0.203125,-0.09375 0.359375,-0.679687 1.015625,-1.09375 0.65625,-0.421875 1.460937,-0.421875 z M 35.664062,9.2714462 q 0.01563,0.039063 0.05469,0.03125 0.04687,-0.00781 0.04687,-0.046875 0.0078,-0.09375 0,-0.1953125 -0.03125,-0.4609375 -0.335938,-0.796875 -0.296875,-0.3359375 -0.71875,-0.359375 -0.484375,-0.039063 -0.84375,0.34375 -0.351562,0.375 -0.351562,0.9140625 v 0.09375 q 0.0078,0.039063 0.04687,0.046875 0.03906,0.00781 0.05469,-0.03125 0.132813,-0.328125 0.40625,-0.53125 0.273438,-0.2109375 0.617188,-0.2109375 0.34375,0 0.617187,0.2109375 0.273438,0.203125 0.40625,0.53125 z M 37.46875,8.5292587 q 0.34375,0 0.617187,0.2109375 0.273438,0.203125 0.40625,0.53125 0.01563,0.039063 0.05469,0.03125 0.03906,-0.00781 0.04687,-0.046875 0.0078,-0.09375 0,-0.1953125 -0.03125,-0.4609375 -0.335938,-0.796875 -0.296875,-0.3359375 -0.71875,-0.359375 -0.492187,-0.039063 -0.84375,0.34375 -0.351562,0.375 -0.351562,0.9140625 v 0.09375 q 0.0078,0.039063 0.03906,0.046875 0.03906,0.00781 0.0625,-0.03125 0.132813,-0.328125 0.40625,-0.53125 Q 37.125,8.5292587 37.46875,8.5292587 Z M 32.625,-2.0566788 l -0.984375,0.421875 q -0.851563,0.359375 -1.78125,0.359375 -0.921875,0 -1.773438,-0.359375 v 0 l -0.992187,-0.421875 v 0 q -0.382813,-0.1640625 -0.789063,-0.1796875 h -0.203125 q -0.570312,0.023437 -1.054687,0.3203125 -0.484375,0.296875 -0.789063,0.7890625 -0.296875,0.48437503 -0.3125,1.08593753 v 0.109375 q 0.0078,0.171875 0.03125,0.34375 L 24.96875,6.0526962 v 0 q 0.210937,1.1796875 0.914062,2.109375 0.703125,0.921875 1.734375,1.453125 1.03125,0.5312498 2.242188,0.5312498 0.515625,0 1.015625,-0.101562 l 0.289062,1.632812 v 0.0078 q 0.210938,1.179687 0.90625,2.101562 0.703125,0.929688 1.734375,1.460938 1.039063,0.53125 2.25,0.53125 1.203125,0 2.234375,-0.53125 1.039063,-0.53125 1.742188,-1.460938 0.703125,-0.921875 0.90625,-2.101562 l 0.992187,-5.6406253 v 0 q 0.03125,-0.171875 0.03125,-0.34375 V 5.5917587 Q 41.953125,5.0136337 41.671875,4.5448837 41.398437,4.0683212 40.945312,3.7714462 40.492187,3.4667587 39.9375,3.4042587 39.382812,3.3339462 38.820312,3.5761337 l -0.992187,0.421875 q -1.34375,0.5625 -2.765625,0.25 l 0.671875,-3.82812497 v 0 q 0.125,-0.7109375 -0.148438,-1.3046875 Q 35.3125,-1.4785538 34.78125,-1.8457413 34.25,-2.2129288 33.601562,-2.2363663 h -0.179687 q -0.40625,0.015625 -0.796875,0.1796875 z m -7.539063,2.28125003 q -0.07031,-0.4453125 0.148438,-0.7890625 0.226562,-0.3515625 0.609375,-0.49218753 0.390625,-0.140625 0.804687,0.039063 l 1,0.41406253 q 1.0625,0.453125 2.210938,0.453125 1.15625,0 2.21875,-0.453125 l 0.992187,-0.41406253 q 0.414063,-0.1796875 0.796875,-0.039063 0.390625,0.14062503 0.609375,0.49218753 0.226563,0.34375 0.148438,0.7890625 L 33.632812,5.8573837 v 0 q -0.15625,0.9140625 -0.703125,1.6328125 -0.546875,0.71875 -1.328125,1.1171875 -0.445312,0.2265625 -0.921875,0.328125 -0.40625,0.085937 -0.820312,0.085937 -0.9375,0 -1.734375,-0.40625 -0.796875,-0.4140625 -1.34375,-1.125 -0.539063,-0.71875 -0.703125,-1.6328125 z m 6.765625,8.88281247 q 0.820313,-0.4140625 1.414063,-1.1328125 0.59375,-0.7265625 0.84375,-1.6484375 0.04687,-0.1875 0.07813,-0.375 v 0 l 0.132812,-0.7421875 q 0.265625,0.085937 0.546875,0.1484375 0.273438,0.054687 0.554688,0.085937 1.476562,0.171875 2.84375,-0.4140625 l 0.992187,-0.4140625 q 0.414063,-0.1796875 0.796875,-0.039063 0.390625,0.140625 0.617188,0.4921875 0.226562,0.34375 0.148437,0.78125 l -0.992187,5.6328128 q -0.15625,0.921875 -0.703125,1.632812 -0.539063,0.71875 -1.34375,1.125 -0.796875,0.414063 -1.726563,0.414063 -0.9375,0 -1.734375,-0.414063 -0.796875,-0.40625 -1.34375,-1.125 Q 32.4375,12.404259 32.273437,11.482384 Z M 44.3055,10.338793 q 0,-0.096 0.048,-0.5599995 0.048,-0.48 0.048,-0.56 l 0.032,-0.32 0.144,-1.088 q 0,-0.064 0,-0.128 0.016,-0.08 0.016,-0.128 0.016,-0.048 0.016,-0.064 v -0.304 q 0,-0.096 0.048,-0.48 0.048,-0.384 0.048,-0.416 0.112,-0.336 0.112,-0.416 v -1.52 q -0.064,-0.064 -0.192,-0.336 -0.112,-0.288 -0.112,-0.368 -0.08,-0.528 0,-1.12 0.048,-0.112 0.176,-0.192 0.144,-0.08 0.368,-0.128 0.224,-0.064 0.256,-0.08 0.592,0.128 0.816,0.096 0.336,0 0.704,-0.08 0.384,-0.08 0.592,-0.144 0.224,-0.08 0.704,-0.24 0.48,-0.176 0.64,-0.24 0.208,-0.048 0.672,-0.16 0.48,-0.128 0.8,-0.176 0.336,-0.064 0.752,-0.064 0.176,-0.016 0.752,0.08 l 0.56,0.112 0.16,0.112 q 0.16,0.128 0.24,0.208 0.08,0.064 0.176,0.192 0.112,0.112 0.128,0.208 v 1.008 q -0.064,0.128 -0.304,0.192 -0.224,0.064 -0.4,0.016 -0.064,-0.032 -0.352,-0.336 -0.272,-0.304 -0.464,-0.272 -1.792,-0.08 -2.928,0.304 -0.176,0.08 -0.72,0.272 -0.544,0.176 -0.896,0.352 -0.352,0.16 -0.608,0.384 l -0.112,0.096 q 0,0.112 -0.048,0.72 -0.048,0.608 -0.048,0.704 v 0.112 q -0.016,0.048 0.032,0.208 0.064,0.16 0.064,0.192 0.368,-0.112 1.024,-0.112 h 0.704 q 0.272,-0.064 1.024,-0.288 0.768,-0.24 1.312,-0.368 0.56,-0.128 1.008,-0.144 0.16,0 0.512,0 0.352,-0.016 0.576,-0.016 0.24,-0.016 0.528,0.016 0.304,0.032 0.512,0.096 0.72,0.48 0.608,0.864 0.064,0.368 -0.416,0.544 -0.096,0.048 -0.416,-0.064 -0.32,-0.128 -0.384,-0.128 -0.992,-0.128 -1.936,0.064 -0.944,0.192 -2.224,0.64 -0.176,0.064 -0.448,0.16 -0.256,0.08 -0.384,0.128 -0.128,0.048 -0.32,0.128 -0.192,0.08 -0.368,0.192 l -0.064,0.032 -0.176,0.144 -0.064,0.032 q -0.144,0.032 -0.448,-0.032 -0.288,-0.08 -0.352,-0.08 -0.08,0.032 -0.128,0.144 -0.032,0.112 -0.048,0.272 -0.016,0.144 -0.032,0.192 -0.016,0.16 -0.016,1.024 h 0.176 q 0.272,0 0.464,-0.016 l 1.248,-0.064 q 0.192,-0.016 0.464,-0.016 0.288,0 0.304,-0.016 0.368,-0.08 1.312,-0.128 0.944,-0.064 1.024,-0.064 1.264,-0.064 2.624,0.192 0.224,0.08 0.336,0.288 0.128,0.192 0.064,0.4319995 -0.128,0.176 -0.304,0.304 -0.672,0.016 -1.824,0.144 -1.136,0.128 -1.616,0.16 -0.112,0.016 -0.608,0.096 -0.48,0.08 -0.912,0.16 -0.432,0.08 -0.608,0.144 -0.144,0.016 -0.464,0.128 -0.304,0.112 -0.4,0.08 l -1.008,0.208 q -0.288,-0.08 -0.544,-0.336 -0.096,0.096 -0.32,0.208 -0.432,0.08 -0.704,-0.288 -0.144,-0.208 -0.208,-0.512 z m 10.767997,0.544 v -0.064 q 0.112,-0.16 0.704,-0.608 0.144,-0.048 0.992,-0.5599995 0.112,-0.112 0.64,-0.56 0.544,-0.464 0.704,-0.8 -0.096,-0.16 -0.224,-0.304 -0.128,-0.144 -0.32,-0.32 -0.176,-0.176 -0.272,-0.288 -0.752,-0.784 -0.912,-1.104 v -0.72 q 0.032,-0.112 0.416,-0.496 0.096,-0.112 0.224,-0.112 0.064,0 0.128,0.016 0.064,0.016 0.144,0.048 0.08,0.032 0.112,0.048 0.016,0 0.08,0.08 0.08,0.064 0.176,0.176 0.112,0.112 0.144,0.144 0.176,0.192 0.656,0.864 0.496,0.672 0.864,0.96 0.08,0.016 0.128,0.016 0.032,0 0.096,-0.016 h 0.08 q 0.112,-0.064 0.864,-0.608 0.768,-0.544 1.152,-0.704 1.52,-0.944 2.896,-1.024 0.032,-0.032 0.08,0 0.048,0.016 0.064,0.032 0.032,0 0.064,0.048 0.048,0.048 0.064,0.08 0.016,0.016 0.048,0.08 0.032,0.048 0.032,0.064 0,0.048 0,0.208 0.016,0.144 -0.016,0.24 -0.016,0.08 -0.096,0.16 -0.336,0.288 -0.8,0.416 -0.144,0.064 -0.688,0.32 -0.528,0.256 -0.688,0.336 -0.144,0.08 -0.544,0.304 -0.4,0.208 -0.608,0.368 -0.192,0.144 -0.48,0.384 -0.288,0.24 -0.544,0.512 -0.032,0.096 0,0.208 l 0.912,0.912 q 0.032,0.032 0.416,0.192 0.048,0.016 0.224,0.048 0.192,0.016 0.304,0.064 0.112,0.032 0.176,0.096 0.256,0.432 0.208,0.64 0,0.416 -0.512,0.576 -0.208,-0.016 -0.384,0 -0.176,0.016 -0.384,0 -0.192,-0.032 -0.352,-0.112 -0.336,-0.208 -0.944,-0.752 -0.592,-0.5599995 -0.88,-0.7519995 -0.032,-0.016 -0.112,-0.016 -0.08,0 -0.112,0 -0.288,0.112 -0.528,0.288 -0.224,0.1759995 -0.56,0.5279995 -0.32,0.336 -0.4,0.4 -0.096,0.096 -0.496,0.544 -0.4,0.464 -0.624,0.656 -0.304,0.256 -0.496,0.224 -0.176,0.032 -0.512,-0.224 -0.416,-0.688 -0.304,-1.136 z m 9.440004,-3.9039995 q 0.256,-0.784 0.736,-1.248 0.496,-0.464 1.296,-0.784 0.336,-0.096 0.544,-0.096 0.112,0 0.528,0.064 1.888,0.496 2.672,1.664 1.024,0.992 0.816,3.024 -0.24,0.7519995 -1.136,1.2639995 -0.88,0.496 -1.696,0.448 -0.736,0.176 -1.408,-0.24 -0.656,-0.432 -1.328,-1.1679995 h -0.064 q 0,0.1439995 -0.032,1.2319995 -0.016,1.072 -0.016,1.6 -0.128,1.712 0.816,3.328 0.16,0.304 0,0.72 -0.32,0.368 -0.512,0.4 -0.128,0.016 -0.192,0.016 -0.064,0.016 -0.176,-0.08 -0.112,-0.08 -0.16,-0.144 -0.048,-0.048 -0.144,-0.16 -0.096,-0.112 -0.128,-0.144 -0.64,-1.152 -0.816,-3.84 0,-0.128 -0.016,-0.96 0,-0.816 0,-1.024 0,-0.208 0.016,-0.8639995 0.016,-0.672 0.064,-1.024 0.048,-0.368 0.128,-0.912 0.08,-0.56 0.208,-1.072 z m 2.24,2.016 q 0.064,0.096 0.384,0.432 0.32,0.32 0.416,0.384 0.336,0.1919995 0.784,0.1919995 0.96,0 1.248,-0.7039995 0.208,-0.672 -0.016,-1.2 -0.208,-0.544 -0.8,-1.12 -0.208,-0.192 -0.32,-0.272 -0.112,-0.08 -0.32,-0.144 -0.192,-0.08 -0.368,0.016 -0.672,0.32 -1.12,1.504 0,0.08 -0.016,0.288 0,0.208 0.016,0.352 0.032,0.144 0.112,0.272 z m 5.312,0.128 v -1.728 q -0.112,-0.176 -0.112,-0.512 0,-0.336 0.112,-0.496 0.24,-0.176 0.56,-0.368 0.32,-0.192 0.704,-0.416 0.384,-0.224 0.56,-0.336 0.672,-0.4 1.68,-0.4 1.184,0 2.272,0.512 1.104,0.512 1.824,1.408 0.832,1.136 0.4,2.128 -1.024,1.7599995 -3.04,2.2239995 -0.256,0.096 -0.576,0.144 -0.304,0.048 -0.496,0.048 -0.192,0.016 -0.608,0 -0.416,0 -0.544,0 -0.816,-0.176 -1.136,-0.256 -0.304,-0.08 -0.656,-0.32 -0.352,-0.256 -0.528,-0.592 -0.16,-0.3359995 -0.416,-1.0399995 z m 1.52,0 q 0.112,0.224 0.368,0.496 0.256,0.256 0.448,0.304 0.368,0.1919995 1.056,0.1919995 0.64,0 1.328,-0.1759995 0.704,-0.192 1.296,-0.64 0.592,-0.464 0.672,-1.088 0.016,-0.192 0.016,-0.304 0,-0.112 -0.112,-0.256 -0.096,-0.16 -0.176,-0.24 -0.08,-0.08 -0.224,-0.208 -0.144,-0.128 -0.208,-0.208 -1.36,-0.752 -2.064,-0.752 -0.352,0 -0.672,0.144 -0.144,0.048 -0.304,0.208 -0.464,0.432 -0.608,0.496 -0.048,0.048 -0.192,0.176 -0.128,0.128 -0.224,0.224 -0.096,0.08 -0.192,0.208 -0.08,0.112 -0.096,0.208 -0.096,0.176 -0.112,0.4 -0.016,0.224 0,0.416 0.032,0.176 0,0.4 z m 7.456014,-2.16 q 0.112,-0.704 0.48,-1.216 0.368,-0.512 1.04,-1.12 0.576,-0.288 1.488,-0.288 1.12,0 1.84,0.384 1.36,0.848 1.936,1.424 0,0.048 0.016,0.24 0.016,0.192 -0.016,0.32 -0.016,0.128 -0.112,0.144 -0.512,0.08 -1.04,-0.16 -0.128,-0.08 -0.416,-0.24 -0.288,-0.176 -0.432,-0.256 -0.144,-0.08 -0.384,-0.16 -0.24,-0.08 -0.464,-0.096 -0.128,0 -0.416,0 -0.288,-0.016 -0.464,0 -0.16,0 -0.4,0.048 -0.24,0.048 -0.432,0.16 l -0.096,0.096 q -0.576,0.768 -0.72,1.184 0.032,0.48 0,0.864 -0.032,0.368 -0.016,0.848 0.032,0.48 0.128,0.848 0.112,0.1919995 0.128,0.3839995 0.016,0.176 -0.08,0.416 -0.096,0.24 -0.144,0.336 -0.032,0.08 -0.208,0.368 -0.144,0.192 -0.352,0.192 -0.224,0 -0.464,-0.192 -0.384,-0.24 -0.608,-0.896 0,-2.5279995 0.208,-3.6319995 z m 8.992005,1.28 0.032,-1.312 q 0,-0.464 -0.08,-1.424 -0.096,-0.368 -0.176,-0.432 -1.056,0.08 -1.616,0.352 -0.144,0 -0.416,0.112 -0.272,0.112 -0.464,0.08 -0.112,-0.048 -0.224,-0.144 -0.112,-0.096 -0.224,-0.224 -0.128,-0.144 -0.208,-0.208 -0.064,-0.16 -0.048,-0.448 0.016,-0.288 0.112,-0.432 l 0.528,-0.464 q 0.832,-0.016 2.48,-0.32 l 0.112,-0.128 0.032,-2.51200004 q 0.368,-0.4 0.912,-0.288 0.432,0.336 0.48,0.83200004 0.048,0.096 0.064,0.8 0.016,0.704 0.128,0.816 0.016,0 0.144,0.048 0.144,0.032 0.16,0.048 0.32,-0.032 0.816,-0.112 0.496,-0.096 0.72,-0.112 0.224,-0.016 0.816,0.016 l 0.736,0.032 q 0.688,0.096 0.512,0.8 -0.272,0.272 -0.416,0.304 -0.368,0.032 -0.752,0.096 -0.384,0.064 -0.96,0.208 -0.56,0.128 -0.752,0.16 l -0.032,0.016 q -0.416,0.016 -0.944,0.208 l -0.08,0.112 q 0,0.192 -0.032,0.64 -0.016,0.432 0,0.752 0.016,0.304 0.096,0.624 0,2.8 0.288,3.4879995 0.32,0.288 0.576,0.304 0.144,0 0.368,-0.048 0.064,-0.016 0.192,-0.048 0.128,-0.032 0.176,-0.032 0.048,-0.016 0.144,-0.048 0.096,-0.032 0.128,-0.048 0.048,-0.016 0.112,-0.048 0.08,-0.048 0.112,-0.096 0.048,-0.048 0.112,-0.112 0.064,-0.064 0.112,-0.1439995 0.064,-0.08 0.128,-0.176 0.064,-0.112 0.144,-0.24 -0.016,-0.08 0.048,-0.384 0.064,-0.304 0.096,-0.384 0.176,-0.496 0.64,-0.48 0.224,-0.032 0.336,0.08 0.112,0.112 0.208,0.4 l 0.08,0.272 q -0.112,0.784 -0.24,0.976 -0.32,0.6399995 -0.496,0.8799995 -0.16,0.24 -0.592,0.496 -0.432,0.272 -1.328,0.56 -0.048,0.016 -0.368,0.128 -0.32,0.128 -0.496,0.128 -0.736,-0.032 -1.088,-0.48 -0.048,-0.096 -0.288,-0.496 -0.24,-0.416 -0.336,-0.72 -0.096,-0.32 -0.048,-0.6719995 -0.016,-0.288 -0.08,-0.832 -0.064,-0.544 -0.08,-0.688 -0.016,-0.016 -0.016,-0.032 z m 18.46138,1.3489652 q 0,-0.46875 -0.33593,-0.796875 -0.32813,-0.328125 -0.78907,-0.328125 -0.46875,0 -0.80468,0.328125 -0.32813,0.328125 -0.32813,0.796875 0,0.4687503 0.32813,0.7968753 0.33593,0.328125 0.80468,0.328125 0.46094,0 0.78907,-0.328125 0.33593,-0.328125 0.33593,-0.7968753 z m -1.11718,3.3671873 q -1.40625,0 -2.39063,-0.984375 -0.98437,-0.984375 -0.98437,-2.3906248 0,-1.40625 0.98437,-2.390625 0.98438,-0.984375 2.39063,-0.984375 1.39062,0 2.38281,0.984375 0.99219,0.984375 0.99219,2.390625 0,1.4062498 -0.99219,2.3906248 -0.99219,0.984375 -2.38281,0.984375 z m 0,-1.125 q 0.9375,0 1.59375,-0.65625 0.65625,-0.65625 0.65625,-1.5937498 0,-0.9375 -0.65625,-1.59375 -0.65625,-0.65625 -1.59375,-0.65625 -0.9375,0 -1.59375,0.65625 -0.65625,0.65625 -0.65625,1.59375 0,0.9374998 0.65625,1.5937498 0.65625,0.65625 1.59375,0.65625 z m -5.92188,-8.4374998 h 1.69531 q 0.11719,0 0.19532,0.085937 0.0859,0.078125 0.0859,0.1953125 v 0.28125 h 6.75782 v -0.28125 q 0,-0.1171875 0.0781,-0.1953125 0.0859,-0.085937 0.20313,-0.085937 h 2.8125 q 0.11718,0 0.19531,0.085937 0.0859,0.078125 0.0859,0.1953125 v 0.28125 h 0.5625 q 0.70312,0 1.19531,0.4921875 0.49219,0.4921875 0.49219,1.1953125 v 7.8828128 q 0,0.695312 -0.49219,1.1875 -0.49219,0.5 -1.19531,0.5 h -13.51563 q -0.695311,0 -1.195311,-0.5 -0.492188,-0.492188 -0.492188,-1.1875 V 5.6464462 q 0,-0.703125 0.492188,-1.1953125 0.5,-0.4921875 1.195311,-0.4921875 h 0.5625 v -0.28125 q 0,-0.1171875 0.0781,-0.1953125 0.0859,-0.085937 0.20312,-0.085937 z m -1.40625,2.25 v 0.5625 h 5.28906 q -0.85937,0.515625 -1.38281,1.4140625 -0.52344,0.890625 -0.52344,1.9609375 0,1.0781248 0.52344,1.9765628 0.52344,0.890625 1.38281,1.40625 h -5.28906 v 0.5625 q 0,0.234375 0.16406,0.398437 0.16407,0.164063 0.39844,0.164063 h 13.51563 q 0.23437,0 0.39843,-0.164063 0.16407,-0.164062 0.16407,-0.398437 v -0.5625 h -5.28907 q 0.85938,-0.515625 1.38282,-1.40625 0.53125,-0.898438 0.53125,-1.9765628 0,-1.0703125 -0.53125,-1.9609375 -0.52344,-0.8984375 -1.38282,-1.4140625 h 5.28907 v -0.5625 q 0,-0.234375 -0.16407,-0.3984375 -0.16406,-0.1640625 -0.39843,-0.1640625 h -13.51563 q -0.23437,0 -0.39844,0.1640625 -0.16406,0.1640625 -0.16406,0.3984375 z m 30.97656,-1.96875 q 0,0.3125 -0.28906,0.4453125 0.1875,0.2578125 0.0312,0.5390625 -0.16406,0.2734375 -0.47656,0.2421875 0.0312,0.3203125 -0.25,0.4765625 -0.27344,0.15625 -0.53125,-0.023437 -0.13281,0.2890625 -0.45313,0.2890625 -0.32031,0 -0.44531,-0.2890625 -0.26562,0.1796875 -0.53906,0.023437 -0.27344,-0.15625 -0.24219,-0.4765625 -0.32031,0.03125 -0.47656,-0.2421875 -0.16406,-0.28125 0.0234,-0.5390625 -0.28907,-0.1328125 -0.28907,-0.4453125 0,-0.3203125 0.28907,-0.453125 -0.1875,-0.2578125 -0.0234,-0.5390625 0.15625,-0.2734375 0.47656,-0.2421875 -0.0312,-0.3125 0.24219,-0.4765625 0.27344,-0.15625 0.53906,0.03125 0.125,-0.296875 0.44531,-0.296875 0.32032,0 0.45313,0.296875 0.25781,-0.1875 0.53125,-0.03125 0.28125,0.1640625 0.25,0.4765625 0.3125,-0.03125 0.47656,0.2421875 0.15625,0.28125 -0.0312,0.5390625 0.28906,0.1328125 0.28906,0.453125 z m -1.96875,1.40625 q 0.58594,0 0.99219,-0.4140625 0.41406,-0.4140625 0.41406,-0.9921875 0,-0.5859375 -0.41406,-1 -0.40625,-0.4140625 -0.99219,-0.4140625 -0.57812,0 -0.99218,0.4140625 -0.41407,0.4140625 -0.41407,1 0,0.578125 0.41407,0.9921875 0.41406,0.4140625 0.99218,0.4140625 z m 6.47657,7.8828128 V 0.57613373 H 123.14334 V 12.966759 Z m -0.75,-10.0703128 q -0.17969,-0.070312 -0.375,-0.070312 -0.3125,0 -0.57813,0.1640625 -0.25781,0.15625 -0.39844,0.40625 -0.0781,0 -0.14843,0 -0.70313,0 -1.19532,0.4921875 -0.49218,0.4921875 -0.49218,1.1953125 0,0.6015625 0.38281,1.0703125 l -1.63281,1.625 q -0.10157,0.109375 -0.1875,0.1953125 -0.0859,0.085937 -0.16407,0.1484375 -0.125,0.1171875 -0.20312,0.1484375 -0.0312,0.015625 -0.0547,0.015625 -0.008,0 -0.0469,-0.00781 -0.0312,-0.00781 -0.10157,-0.039063 l -2.25,-1.125 q -0.80468,-0.40625 -1.55468,-0.3359375 -0.75,0.070312 -1.21875,0.34375 l -0.85938,0.4296875 v -1.34375 h 1.69531 q 0.46094,0 0.78907,-0.328125 0.33593,-0.328125 0.33593,-0.796875 0,-0.46875 -0.33593,-0.796875 -0.32813,-0.328125 -0.78907,-0.328125 0,-0.234375 -0.17187,-0.3984375 -0.16406,-0.1640625 -0.39063,-0.1640625 -0.19531,0 -0.34375,0.109375 -0.30468,-0.40625 -0.78906,-0.578125 V 1.1386337 h 11.26563 v 1.5546875 q -0.10157,0.09375 -0.1875,0.203125 z m -1.5,2.75 q 0.48437,-0.484375 0.875,-0.734375 0.39062,-0.2578125 0.8125,-0.34375 v 7.7812498 q -1.07032,-0.875 -2.52344,-1.398437 -1.45313,-0.523438 -3.10938,-0.523438 -1.65625,0 -3.10937,0.523438 -1.44531,0.523437 -2.52344,1.398437 V 8.1776962 l 1.13281,-0.5625 q 0.35157,-0.2109375 0.96094,-0.2734375 0.60938,-0.0625 1.28906,0.2734375 l 2.25,1.125 q 0.42188,0.2109375 0.70313,0.039063 0.28125,-0.1796875 0.70312,-0.6015625 z M 120.89334,-1.1113663 V 14.654259 q 0,0.234375 0.16406,0.398437 0.16407,0.164063 0.39844,0.164063 h 15.76563 q 0.23437,0 0.39843,-0.164063 0.16407,-0.164062 0.16407,-0.398437 V -1.1113663 q 0,-0.234375 -0.16407,-0.3984375 -0.16406,-0.1640625 -0.39843,-0.1640625 h -15.76563 q -0.23437,0 -0.39844,0.1640625 -0.16406,0.1640625 -0.16406,0.3984375 z m 1.125,0.56250003 h 14.64063 V 14.091759 h -14.64063 z"
           id="text3"
           style="font-size:16px;font-family:'Virgil 3 YOFF';-inkscape-font-specification:'Virgil 3 YOFF, Normal';dominant-baseline:text-before-edge;white-space:pre;fill:#1971c2"
           inkscape:label="text3"
           aria-label="ðŸš¢ðŸŽ­ExportðŸ“·ðŸ–¼ï¸" /></g><g
         transform="translate(42.674002,75.190414)"
         id="g4"><path
           d="M 4.9296875,0.01363373 H 17.039062 q 0.140625,0 0.140625,0.140625 V 6.6308212 q 0,0.140625 -0.140625,0.140625 H 4.9296875 q -0.140625,0 -0.140625,-0.140625 V 0.15425873 q 0,-0.140625 0.140625,-0.140625 z m -1.828125,-0.5625 V 7.3339462 q 0,0.46875 0.328125,0.796875 0.3359375,0.328125 0.796875,0.328125 h 0.5625 v 1.6874998 q 0,0.648438 0.4296875,1.132813 h -0.070312 q -0.3828125,0 -0.65625,0.265625 -0.265625,0.265625 -0.265625,0.648437 v 2.109375 q 0,0.375 0.265625,0.640625 0.2734375,0.273438 0.65625,0.273438 H 16.828125 q 0.375,0 0.640625,-0.273438 0.273437,-0.265625 0.273437,-0.640625 v -2.109375 q 0,-0.382812 -0.273437,-0.648437 -0.265625,-0.265625 -0.640625,-0.265625 H 16.75 q 0.429687,-0.484375 0.429687,-1.132813 V 8.4589462 h 0.5625 q 0.46875,0 0.796875,-0.328125 0.328125,-0.328125 0.328125,-0.796875 v -7.88281247 q 0,-0.46875003 -0.328125,-0.79687503 -0.328125,-0.328125 -0.796875,-0.328125 H 4.2265625 q -0.4609375,0 -0.796875,0.328125 -0.328125,0.328125 -0.328125,0.79687503 z M 14.367188,11.279259 H 7.609375 v -1.132813 h 6.757813 z m -9.0156255,1.125 H 16.617187 v 1.6875 H 5.3515625 Z M 17.742187,-0.54886627 V 7.3339462 H 4.2265625 V -0.54886627 Z M 5.921875,10.146446 V 8.4589462 h 0.5625 v 1.6874998 h 0.5625 v 0.570313 h -0.5625 Q 6.25,10.716759 6.0859375,10.552696 5.921875,10.380821 5.921875,10.146446 Z m 9.007813,0 h 0.5625 V 8.4589462 h 0.562499 v 1.6874998 q 0,0.234375 -0.164062,0.40625 -0.164062,0.164063 -0.398437,0.164063 h -0.5625 z M 7.609375,8.4589462 h 6.757813 v 0.5625 H 7.609375 Z M 23.48875,3.5067935 q 1.072,-1.456 2.128,-1.92 0.624,-0.384 1.264,-0.32 0.096,0 0.288,0.016 0.192,0 0.272,0 h 0.096 q 0.032,0 0.224,0.064 0.192,0.048 0.224,0.032 h 0.064 q 0.016,-0.048 0.128,-0.208 0.128,-0.16 0.176,-0.19200004 0.336,-0.096 0.592,0.30400004 0.112,0.24 0.24,0.752 0.048,0.128 0.176,0.352 0.72,0.912 0.72,2.176 0,0.064 -0.016,0.304 0,0.224 0,0.256 -0.192,0.512 -0.608,0.512 -0.624,-0.144 -0.704,-0.208 l -0.032,-0.032 q -0.032,-0.016 -0.048,-0.032 l -0.016,-0.032 q -0.224,-0.576 -0.416,-1.424 -0.08,-0.352 -0.192,-0.496 -0.096,-0.08 -0.304,-0.304 -0.192,-0.224 -0.368,-0.336 -0.176,-0.112 -0.4,-0.08 -0.272,0 -0.544,0.096 -0.256,0.08 -0.432,0.192 -0.176,0.096 -0.432,0.336 -0.24,0.224 -0.368,0.352 -0.112,0.128 -0.368,0.448 -0.256,0.304 -0.336,0.4 -1.456,2.448 -0.192,3.744 0.848,1.056 2.624,1.52 0.16,0.064 0.176,0.08 0.048,0 0.704,-0.048 0.672,-0.064 1.088,-0.144 0.272,-0.064 0.576,-0.064 0.224,0 0.64,0.064 0.432,0.048 0.528,0.144 0.128,0.16 0.128,0.3679995 0,0.192 -0.128,0.336 -0.352,0.288 -0.496,0.304 -1.216,0.4 -2,0.464 -0.96,0 -2.032,-0.32 -1.072,-0.336 -1.808,-0.88 -0.704,-0.3999995 -1.248,-1.0879995 -0.528,-0.688 -0.688,-1.44 -0.352,-1.696 1.12,-4.048 z m 15.327986,7.8079995 q -1.712,0.16 -3.04,0.112 -0.192,-0.016 -0.624,-0.032 -0.416,-0.016 -0.592,-0.032 -0.176,-0.016 -0.464,-0.08 -0.288,-0.064 -0.528,-0.176 -0.496,-0.224 -0.8,-0.688 -0.288,-0.4639995 -0.224,-0.9919995 -0.048,-0.848 0.304,-1.536 0.864,-1.936 1.216,-3.136 0.064,-0.544 0.416,-1.296 0.352,-0.768 0.4,-1.232 0,-0.128 0,-0.176 0,-0.048 -0.048,-0.176 -0.048,-0.128 -0.064,-0.16 0.24,-0.672 0.4,-0.80000004 0.56,-0.224 0.736,-0.224 0.304,0 0.48,0.32000004 -0.224,1.2 -0.4,1.824 -0.24,0.976 -0.96,2.944 -0.704,1.952 -0.752,2.112 -0.096,0.224 -0.112,0.464 -0.016,0.224 0,0.512 0.016,0.288 0,0.448 0.096,0.16 0.72,0.4 0.736,0.176 1.552,0.176 0.56,0 1.28,-0.08 2.176,-0.176 2.32,-0.192 0.176,0.016 0.224,0 0.048,-0.032 0.24,0.064 0.208,0.096 0.256,0.128 0.048,0.016 0.24,0.128 0.192,0.1119995 0.208,0.1279995 0.032,0.032 0.176,0.128 0.144,0.096 0.192,0.16 0.064,0.048 0.128,0.176 0.064,0.112 0.064,0.256 v 0.048 q -0.112,0.448 -0.416,0.688 h -0.032 q -0.144,0 -1.232,-0.128 -1.072,-0.112 -1.264,-0.08 z m 3.536014,-1.04 1.664,-0.4159995 q 0.352,-0.08 0.4,-0.304 0.176,-0.4 0.32,-1.888 0.144,-1.488 0.224,-1.84 0.256,-1.824 0.176,-2.736 -0.24,-0.096 -0.464,-0.096 -0.128,0 -0.432,0.048 -0.288,0.032 -0.448,0.032 -0.128,0.08 -0.352,0.08 -0.272,0 -0.464,-0.08 -0.336,-0.224 -0.4,-0.816 -0.016,-0.144 0.272,-0.432 0.288,-0.304 0.592,-0.496 0.368,-0.032 0.752,0.224 h 1.216 q 0.288,-0.096 0.304,-0.112 0.032,-0.016 0.208,-0.192 0.176,-0.192 0.304,-0.208 0.448,-0.032 0.608,0.208 h 0.704 q 0.176,-0.032 0.352,-0.064 0.176,-0.048 0.208,-0.064 0.032,-0.016 0.144,-0.016 0.112,-0.016 0.192,0 0.08,0 0.32,0.016 h 0.384 q 0.336,0.16 0.576,0.544 0.24,0.368 0.144,0.672 -0.224,0.096 -0.416,0.16 -0.176,0.064 -0.336,0.112 -0.144,0.048 -0.24,0.08 -0.096,0.016 -0.224,0.032 -0.128,0 -0.176,0 -0.048,0 -0.208,0 -0.144,0 -0.192,0 -0.416,0 -0.736,0.048 -0.048,0 -0.08,0.016 l -0.336,0.064 q -0.032,0.016 -0.08,0.016 -0.016,0 -0.064,0.048 -0.032,0.032 -0.032,0.048 -0.144,0.56 -0.416,2.448 -0.256,1.888 -0.384,2.416 -0.016,0.144 -0.064,0.544 -0.032,0.384 -0.048,0.576 0,0.176 0.016,0.512 0,0.032 0.096,0.112 0.112,0.064 0.208,0.08 1.744,-0.224 2.288,-0.192 0.016,0 0.224,0.032 0.208,0.016 0.304,0.048 0.112,0.016 0.272,0.064 0.16,0.048 0.24,0.144 0.096,0.08 0.112,0.208 0.048,0.1439995 -0.032,0.3679995 -0.064,0.208 -0.176,0.24 -0.48,0.176 -2.32,0.512 -0.08,0 -0.144,0.016 l -0.528,0.064 q -0.064,0.016 -0.144,0.016 -0.544,0.096 -0.912,0.4 h -0.496 l -0.416,-0.112 q -0.272,0.016 -0.688,0.096 -0.4,0.096 -0.576,0.112 -0.576,0.128 -0.96,-0.592 z M 56.068939,0.01363373 h 10.984375 q 0.140625,0 0.140625,0.140625 V 7.7558212 q 0,0.140625 -0.140625,0.140625 H 56.068939 q -0.140625,0 -0.140625,-0.140625 V 0.15425873 q 0,-0.140625 0.140625,-0.140625 z M 67.342377,9.7480087 Q 67.303314,9.5839462 67.139252,9.5839462 H 55.990814 q -0.171875,0 -0.210937,0.1640625 l -0.40625,1.8281253 q -0.02344,0.09375 0.03906,0.179687 0.07031,0.07813 0.171875,0.07813 h 11.960938 q 0.101562,0 0.164062,-0.07813 0.0625,-0.07813 0.03906,-0.179687 z m -8.695313,3.7734373 q -0.07031,0 -0.117187,-0.05469 -0.03906,-0.05469 -0.01563,-0.117188 l 0.210937,-0.84375 q 0.03125,-0.109375 0.132813,-0.109375 h 5.40625 q 0.109375,0 0.132812,0.109375 l 0.21875,0.84375 q 0.01563,0.0625 -0.03125,0.117188 -0.03906,0.05469 -0.101562,0.05469 z m 11.34375,0.4375 q 0.01563,0.09375 0.01563,0.1875 0,0.4375 -0.3125,0.757813 -0.3125,0.3125 -0.757812,0.3125 H 54.193939 q -0.445312,0 -0.757812,-0.3125 -0.3125,-0.320313 -0.3125,-0.757813 0,-0.09375 0.01563,-0.1875 v -0.02344 -0.02344 l 1.101562,-5.2265623 v -9.23437497 q 0,-0.46875003 0.328125,-0.79687503 0.335938,-0.328125 0.796875,-0.328125 h 12.390625 q 0.46875,0 0.796875,0.328125 0.328125,0.328125 0.328125,0.79687503 V 8.6855087 l 1.109375,5.2265623 v 0.02344 z m -0.515625,0.07813 -0.242187,0.03906 0.03125,-0.0078 z M 67.756439,-0.54886627 H 55.365814 V 8.4589462 H 67.756439 Z M 68.873627,14.091759 67.803314,9.0214462 H 55.318939 l -1.0625,5.0703128 z"
           id="text4"
           style="font-size:16px;font-family:'Virgil 3 YOFF';-inkscape-font-specification:'Virgil 3 YOFF, Normal';dominant-baseline:text-before-edge;white-space:pre;fill:#1971c2"
           aria-label="ðŸ–¥ï¸CLIðŸ’»" /></g><g
         stroke-linecap="round"
         id="g6"
         transform="translate(0,-2.5676158)"><g
           transform="translate(25.349956,12.351608)"
           fill-rule="evenodd"
           id="g5"><path
             d="M -0.02,0.11 10.84,-2.25 7.6,3.7 -7.63,17.25 -13.2,13.47 0.27,-0.38"
             stroke="none"
             stroke-width="0"
             fill="#a5d8ff"
             fill-rule="evenodd"
             id="path4" /><path
             d="M 0,0 C 3.9,-0.43 7.82,-1.43 9.89,-2.35 M 0,0 c 3.37,-0.92 6.33,-1.64 9.89,-2.35 m 0,0 C 8.89,-0.2 8.67,1.61 7.71,3.44 M 9.89,-2.35 C 9.28,-0.46 8.57,1.4 7.71,3.44 m 0,0 C 1.85,9.07 -2.34,12.19 -7.27,16.95 M 7.71,3.44 C 4.82,6.4 1.54,9.61 -7.27,16.95 m 0,0 c -1.47,-1.12 -3.11,-2.05 -6.05,-4.2 m 6.05,4.2 c -1.52,-1.27 -3.56,-2.3 -6.05,-4.2 m 0,0 C -9.8,9.49 -4.56,4.55 0,0 M -13.32,12.75 C -8.49,8.49 -3.82,3.11 0,0 m 0,0 c 0,0 0,0 0,0 m 0,0 c 0,0 0,0 0,0"
             stroke="#1971c2"
             stroke-width="1"
             fill="none"
             id="path5" /></g></g></g></g></svg>
